<svg width="260" height="127" viewBox="0 0 260 127" fill="none" xmlns="http://www.w3.org/2000/svg">
<g clip-path="url(#clip0_99_165)">
<g clip-path="url(#clip1_99_165)">
<g filter="url(#filter0_f_99_165)">
<ellipse cx="26" cy="33" rx="105" ry="83" fill="#EAC018" fill-opacity="0.01"/>
</g>
<g filter="url(#filter1_f_99_165)">
<ellipse cx="289" cy="170.5" rx="98" ry="80.5" fill="#8100FF" fill-opacity="0.01"/>
</g>
</g>
<rect x="31.5" y="61.5" width="191" height="65" rx="9.5" stroke="url(#paint0_linear_99_165)" stroke-opacity="0.01"/>
<g clip-path="url(#clip2_99_165)">
<g filter="url(#filter2_f_99_165)">
<ellipse cx="17" cy="18" rx="105" ry="83" fill="#EAC018" fill-opacity="0.05"/>
</g>
<g filter="url(#filter3_f_99_165)">
<ellipse cx="280" cy="155.5" rx="98" ry="80.5" fill="#939393" fill-opacity="0.025"/>
</g>
</g>
<rect x="22.5" y="46.5" width="209" height="71" rx="9.5" stroke="url(#paint1_linear_99_165)" stroke-opacity="0.05"/>
<g clip-path="url(#clip3_99_165)">
<g filter="url(#filter4_f_99_165)">
<ellipse cx="11" cy="3" rx="105" ry="83" fill="#EAC018" fill-opacity="0.1"/>
</g>
<g filter="url(#filter5_f_99_165)">
<ellipse cx="274" cy="140.5" rx="98" ry="80.5" fill="#939393" fill-opacity="0.05"/>
</g>
</g>
<rect x="16.5" y="31.5" width="226" height="77" rx="9.5" stroke="url(#paint2_linear_99_165)" stroke-opacity="0.2"/>
<g clip-path="url(#clip4_99_165)">
<g filter="url(#filter6_f_99_165)">
<ellipse cx="2" cy="-13" rx="105" ry="83" fill="#EAC018" fill-opacity="0.15"/>
</g>
<g filter="url(#filter7_f_99_165)">
<ellipse cx="265" cy="124.5" rx="98" ry="80.5" fill="#9A9A9A" fill-opacity="0.06"/>
</g>
</g>
<rect x="7.5" y="15.5" width="244" height="83" rx="9.5" stroke="url(#paint3_linear_99_165)" stroke-opacity="0.4"/>
<g clip-path="url(#clip5_99_165)">
<rect width="260" height="89" rx="10" fill="#1E1D1A"/>
<g filter="url(#filter8_f_99_165)">
<ellipse cx="30.5" cy="-28" rx="96.5" ry="83" fill="#EAC018" fill-opacity="0.35"/>
</g>
<g filter="url(#filter9_f_99_165)">
<ellipse cx="260" cy="109.5" rx="88" ry="80.5" fill="#939393" fill-opacity="0.05"/>
</g>
<path d="M25.3125 27.813H15.3375C14.4974 27.813 14.0774 27.813 13.7565 27.6495C13.4743 27.5057 13.2448 27.2762 13.101 26.9939C12.9375 26.6731 12.9375 26.253 12.9375 25.413V14.4625C12.9375 13.6224 12.9375 13.2024 13.101 12.8815C13.2448 12.5993 13.4743 12.3698 13.7565 12.226C14.0774 12.0625 14.4974 12.0625 15.3375 12.0625H18.6599C19.0356 12.0625 19.2234 12.0625 19.394 12.1143C19.5449 12.1601 19.6853 12.2353 19.8072 12.3355C19.9449 12.4486 20.0491 12.605 20.2575 12.9176L21.3675 14.5829C21.5759 14.8955 21.6801 15.0518 21.8178 15.165C21.9397 15.2652 22.0801 15.3403 22.231 15.3862C22.4016 15.438 22.5894 15.438 22.9651 15.438H27.563C28.2614 15.438 28.6107 15.438 28.8862 15.552C29.254 15.7042 29.5462 15.9964 29.6985 16.3643C29.8125 16.6398 29.8125 16.989 29.8125 17.6875V17.6875M19.6875 22.1875H27.5625" stroke="url(#paint4_linear_99_165)" stroke-linecap="round"/>
<path d="M15.7655 19.3286C15.9622 18.7385 16.0605 18.4434 16.243 18.2253C16.4041 18.0326 16.611 17.8835 16.8447 17.7916C17.1093 17.6875 17.4203 17.6875 18.0424 17.6875L29.8578 17.6879C30.982 17.6879 31.5441 17.6879 31.913 17.9233C32.236 18.1293 32.4679 18.451 32.5612 18.8226C32.6678 19.2471 32.49 19.7803 32.1345 20.8468L30.3595 26.1719C30.1628 26.762 30.0645 27.0571 29.882 27.2752C29.7209 27.4678 29.5141 27.617 29.2804 27.7089C29.0157 27.813 28.7047 27.813 28.0827 27.813H16.2673C15.1431 27.813 14.581 27.813 14.212 27.5776C13.889 27.3716 13.6571 27.0498 13.5638 26.6783C13.4572 26.2538 13.6349 25.7206 13.9904 24.654L15.7655 19.3286Z" stroke="url(#paint5_linear_99_165)"/>
<circle cx="29.5681" cy="26.2859" r="3.85714" fill="#FF4B4B"/>
<path d="M29.2252 27.4094C29.2252 27.2294 29.3802 27.0844 29.5752 27.0844C29.7802 27.0844 29.9402 27.2294 29.9402 27.4094C29.9402 27.5894 29.7802 27.7294 29.5752 27.7294C29.3802 27.7294 29.2252 27.5894 29.2252 27.4094ZM29.8402 24.0394V26.6644H29.3802V24.0394H29.8402Z" fill="white"/>
<path d="M47.922 16.068C45.682 16.068 44.002 17.93 44.002 19.848C44.002 22.102 45.99 23.642 47.922 23.642C50.19 23.642 51.856 21.766 51.856 19.848C51.856 17.552 49.812 16.068 47.922 16.068ZM47.922 14.668C50.792 14.668 53.256 16.992 53.256 19.848C53.256 22.718 50.792 25.042 47.922 25.042C45.066 25.042 42.602 22.718 42.602 19.848C42.602 16.992 45.066 14.668 47.922 14.668ZM59.0302 17.538C60.9902 17.538 62.5302 18.896 62.5302 21.276C62.5302 23.474 60.6402 25.042 58.4702 25.042C56.2862 25.042 54.3962 23.404 54.3962 21.066C54.3962 18.686 54.6902 16.124 57.9102 15.312C58.9882 15.046 59.7582 14.892 60.1222 14.64L60.3182 14.038H61.3402V15.648C60.6542 16.082 59.7582 16.194 58.3162 16.572C56.7902 16.964 56.1882 17.776 55.9502 18.812C56.7342 18.098 57.7842 17.538 59.0302 17.538ZM55.7962 20.254V21.052C55.7962 22.48 57.0702 23.642 58.4702 23.642C59.8982 23.642 61.1302 22.704 61.1302 21.276C61.1302 19.666 59.8282 18.938 58.7502 18.938C57.5882 18.938 56.5242 19.414 55.7962 20.254ZM65.0387 25H63.6387V17.16H65.0387V20.268H69.3507V17.16H70.7507V25H69.3507V21.57H65.0387V25ZM75.6596 17.118C77.8296 17.118 79.7196 18.896 79.7196 21.066C79.7196 23.264 77.8296 25.042 75.6596 25.042C73.4756 25.042 71.5856 23.264 71.5856 21.066C71.5856 18.896 73.4756 17.118 75.6596 17.118ZM75.6596 18.518C74.2316 18.518 72.9856 19.666 72.9856 21.066C72.9856 22.494 74.2316 23.642 75.6596 23.642C77.0876 23.642 78.3196 22.494 78.3196 21.066C78.3196 19.666 77.0876 18.518 75.6596 18.518ZM87.723 22.62C87.723 23.936 86.659 25 85.343 25H80.681V17.16H85.063C86.309 17.16 87.317 18.154 87.317 19.386C87.317 19.834 87.051 20.506 86.561 20.758C87.149 21.01 87.723 21.836 87.723 22.62ZM85.343 21.612H82.081V23.642H85.343C85.889 23.642 86.323 23.152 86.323 22.62C86.323 22.074 85.889 21.612 85.343 21.612ZM85.063 18.518H82.081V20.254H85.231C85.567 20.226 85.917 19.862 85.917 19.386C85.917 18.924 85.525 18.518 85.063 18.518ZM90.2226 18.462V17.16H96.5506V25H95.1506V18.462H92.4486L91.3426 23.782C91.1746 24.608 90.2786 25.042 89.5226 25.042L88.8366 24.902V23.642H89.5226C89.7466 23.642 90.0406 23.446 90.1106 23.096L91.0626 18.462H90.2226ZM99.2086 15.424C99.2086 14.99 99.5586 14.668 100.021 14.668C100.483 14.668 100.847 14.99 100.847 15.424C100.847 15.858 100.483 16.166 100.021 16.166C99.5586 16.166 99.2086 15.858 99.2086 15.424ZM102.149 15.424C102.149 14.99 102.499 14.668 102.961 14.668C103.423 14.668 103.787 14.99 103.787 15.424C103.787 15.858 103.423 16.166 102.961 16.166C102.499 16.166 102.149 15.858 102.149 15.424ZM101.449 23.684C102.793 23.684 103.479 22.984 103.717 22.704L104.571 23.782C104.403 23.992 103.465 25.042 101.449 25.042C99.2646 25.042 97.5146 23.306 97.5146 21.066C97.5146 18.896 99.2366 17.118 101.421 17.118C103.521 17.118 105.215 18.826 105.215 21.066C105.215 21.234 105.201 21.472 105.187 21.57H98.9566C99.2086 22.774 100.217 23.684 101.449 23.684ZM101.421 18.518C100.245 18.518 99.2926 19.26 99.0126 20.268H103.689C103.521 19.33 102.569 18.518 101.421 18.518ZM107.815 25H106.415V17.16H107.815V20.268H112.127V17.16H113.527V25H112.127V21.57H107.815V25ZM122.56 18.518C121.132 18.518 119.956 19.526 119.956 21.066C119.956 22.634 121.132 23.642 122.56 23.642C124.324 23.642 125.038 22.676 125.038 22.704L125.92 23.81C125.85 23.88 124.688 25.042 122.56 25.042C120.376 25.042 118.556 23.404 118.556 21.066C118.556 18.756 120.376 17.118 122.56 17.118C124.338 17.118 125.43 17.902 125.472 17.93V19.316H124.45L124.254 18.854C123.89 18.7 123.302 18.518 122.56 18.518ZM130.771 25H129.371V18.462H126.571V17.16H133.571V18.462H130.771V25ZM134.129 22.508C134.129 21.108 135.123 19.974 136.789 19.974C138.175 19.974 139.071 20.156 139.841 20.534V20.044C139.841 18.98 138.931 18.42 137.909 18.42C137.055 18.42 136.579 18.504 136.019 18.798L135.935 19.358H134.815V17.986C135.767 17.44 136.537 17.118 137.909 17.118C139.841 17.118 141.241 18.126 141.241 20.31V25H140.121L139.897 23.838C139.127 24.454 138.203 25.042 136.789 25.042C135.123 25.042 134.129 23.908 134.129 22.508ZM135.487 22.508C135.487 23.152 136.005 23.796 137.069 23.796C138.175 23.796 139.085 23.194 139.841 22.466V21.78C139.099 21.416 138.035 21.22 136.929 21.22C135.865 21.22 135.487 21.864 135.487 22.508ZM146.433 25H145.033V18.462H142.233V17.16H149.233V18.462H146.433V25ZM152.451 25L150.113 17.16H151.513L153.445 23.6H154.467L156.399 17.16H157.799L154.929 26.778C154.691 27.59 153.865 28.038 153.109 28.038L152.283 27.898V26.638H153.109C153.333 26.638 153.641 26.456 153.711 26.106L154.033 25H152.451ZM162.261 18.518C160.833 18.518 159.657 19.526 159.657 21.066C159.657 22.634 160.833 23.642 162.261 23.642C164.025 23.642 164.739 22.676 164.739 22.704L165.621 23.81C165.551 23.88 164.389 25.042 162.261 25.042C160.077 25.042 158.257 23.404 158.257 21.066C158.257 18.756 160.077 17.118 162.261 17.118C164.039 17.118 165.131 17.902 165.173 17.93V19.316H164.151L163.955 18.854C163.591 18.7 163.003 18.518 162.261 18.518ZM173.011 21.626V20.282H174.243C175.979 20.282 176.119 19.806 176.119 19.414C176.119 18.91 175.349 18.448 174.103 18.448C173.263 18.448 172.591 18.7 172.185 18.896L172.143 19.316H170.981V17.944C171.023 17.902 172.325 17.118 174.103 17.118C176.077 17.118 177.519 18.154 177.519 19.414C177.519 20.086 177.043 20.716 176.651 20.898C177.183 21.136 177.813 21.794 177.813 22.578C177.813 24.062 176.259 25.042 174.173 25.042C172.045 25.042 170.533 23.866 170.463 23.81L171.345 22.732C171.401 22.774 172.409 23.67 174.173 23.67C175.139 23.67 176.413 23.39 176.413 22.578C176.413 22.032 176.105 21.626 174.173 21.626H173.011ZM178.939 22.508C178.939 21.108 179.933 19.974 181.599 19.974C182.985 19.974 183.881 20.156 184.651 20.534V20.044C184.651 18.98 183.741 18.42 182.719 18.42C181.865 18.42 181.389 18.504 180.829 18.798L180.745 19.358H179.625V17.986C180.577 17.44 181.347 17.118 182.719 17.118C184.651 17.118 186.051 18.126 186.051 20.31V25H184.931L184.707 23.838C183.937 24.454 183.013 25.042 181.599 25.042C179.933 25.042 178.939 23.908 178.939 22.508ZM180.297 22.508C180.297 23.152 180.815 23.796 181.879 23.796C182.985 23.796 183.895 23.194 184.651 22.466V21.78C183.909 21.416 182.845 21.22 181.739 21.22C180.675 21.22 180.297 21.864 180.297 22.508ZM191.083 21.57H188.717V25H187.317V17.16H188.717V20.268H191.111C191.307 20.24 191.545 19.988 191.671 19.652L192.147 18.42C192.511 17.608 193.211 17.16 193.967 17.16L194.513 17.3V18.56H193.967C193.743 18.56 193.519 18.756 193.379 19.106L192.903 20.338C192.819 20.562 192.483 20.842 192.357 20.912C192.483 20.954 192.777 21.234 192.875 21.43L193.645 23.096C193.799 23.446 194.009 23.642 194.233 23.642H194.779V24.902L194.233 25.042C193.463 25.042 192.791 24.594 192.413 23.782L191.643 22.116C191.489 21.794 191.307 21.598 191.083 21.57ZM195.763 22.508C195.763 21.108 196.757 19.974 198.423 19.974C199.809 19.974 200.705 20.156 201.475 20.534V20.044C201.475 18.98 200.565 18.42 199.543 18.42C198.689 18.42 198.213 18.504 197.653 18.798L197.569 19.358H196.449V17.986C197.401 17.44 198.171 17.118 199.543 17.118C201.475 17.118 202.875 18.126 202.875 20.31V25H201.755L201.531 23.838C200.761 24.454 199.837 25.042 198.423 25.042C196.757 25.042 195.763 23.908 195.763 22.508ZM197.121 22.508C197.121 23.152 197.639 23.796 198.703 23.796C199.809 23.796 200.719 23.194 201.475 22.466V21.78C200.733 21.416 199.669 21.22 198.563 21.22C197.499 21.22 197.121 21.864 197.121 22.508ZM206.548 21.626V20.282H207.78C209.516 20.282 209.656 19.806 209.656 19.414C209.656 18.91 208.886 18.448 207.64 18.448C206.8 18.448 206.128 18.7 205.722 18.896L205.68 19.316H204.518V17.944C204.56 17.902 205.862 17.118 207.64 17.118C209.614 17.118 211.056 18.154 211.056 19.414C211.056 20.086 210.58 20.716 210.188 20.898C210.72 21.136 211.35 21.794 211.35 22.578C211.35 24.062 209.796 25.042 207.71 25.042C205.582 25.042 204.07 23.866 204 23.81L204.882 22.732C204.938 22.774 205.946 23.67 207.71 23.67C208.676 23.67 209.95 23.39 209.95 22.578C209.95 22.032 209.642 21.626 207.71 21.626H206.548ZM212.477 22.508C212.477 21.108 213.471 19.974 215.137 19.974C216.523 19.974 217.419 20.156 218.189 20.534V20.044C218.189 18.98 217.279 18.42 216.257 18.42C215.403 18.42 214.927 18.504 214.367 18.798L214.283 19.358H213.163V17.986C214.115 17.44 214.885 17.118 216.257 17.118C218.189 17.118 219.589 18.126 219.589 20.31V25H218.469L218.245 23.838C217.475 24.454 216.551 25.042 215.137 25.042C213.471 25.042 212.477 23.908 212.477 22.508ZM213.835 22.508C213.835 23.152 214.353 23.796 215.417 23.796C216.523 23.796 217.433 23.194 218.189 22.466V21.78C217.447 21.416 216.383 21.22 215.277 21.22C214.213 21.22 213.835 21.864 213.835 22.508ZM220.98 24.146C220.98 23.642 221.414 23.236 221.96 23.236C222.534 23.236 222.982 23.642 222.982 24.146C222.982 24.65 222.534 25.042 221.96 25.042C221.414 25.042 220.98 24.65 220.98 24.146ZM222.702 14.71V22.06H221.414V14.71H222.702Z" fill="url(#paint6_linear_99_165)"/>
<path d="M42.6 45V37.65H48.8V45H47.8V38.55H43.6V45H42.6ZM52.5223 39.37C53.9023 39.37 55.0823 40.64 55.0823 42.2C55.0823 43.76 53.9023 45.03 52.2223 45.03C51.8323 45.03 51.3023 44.9 50.8023 44.65V47.17H49.8023V39.4H50.6023L50.7223 40C51.2523 39.64 52.0023 39.37 52.5223 39.37ZM52.3223 40.37C51.7723 40.38 51.3023 40.58 50.8023 40.92V43.57C51.3023 43.89 51.7623 44.03 52.3223 44.03C53.3323 44.03 54.0823 43.22 54.0823 42.2C54.0823 41.2 53.3423 40.37 52.3223 40.37ZM58.5742 39.37C60.1242 39.37 61.4742 40.64 61.4742 42.19C61.4742 43.76 60.1242 45.03 58.5742 45.03C57.0142 45.03 55.6642 43.76 55.6642 42.19C55.6642 40.64 57.0142 39.37 58.5742 39.37ZM58.5742 40.37C57.5542 40.37 56.6642 41.19 56.6642 42.19C56.6642 43.21 57.5542 44.03 58.5742 44.03C59.5942 44.03 60.4742 43.21 60.4742 42.19C60.4742 41.19 59.5942 40.37 58.5742 40.37ZM67.7409 46.4H66.8409L66.7409 45H62.1609V39.4H63.1609V44.07H66.0409V39.4H67.0409V44.07H67.7409V46.4ZM71.0402 44.06C72.0002 44.06 72.4902 43.56 72.6602 43.36L73.2702 44.13C73.1502 44.28 72.4802 45.03 71.0402 45.03C69.4802 45.03 68.2302 43.79 68.2302 42.19C68.2302 40.64 69.4602 39.37 71.0202 39.37C72.5202 39.37 73.7302 40.59 73.7302 42.19C73.7302 42.31 73.7202 42.48 73.7102 42.55H69.2602C69.4402 43.41 70.1602 44.06 71.0402 44.06ZM71.0202 40.37C70.1802 40.37 69.5002 40.9 69.3002 41.62H72.6402C72.5202 40.95 71.8402 40.37 71.0202 40.37ZM77.2379 40.37C76.2179 40.37 75.3779 41.09 75.3779 42.19C75.3779 43.31 76.2179 44.03 77.2379 44.03C78.4979 44.03 79.0079 43.34 79.0079 43.36L79.6379 44.15C79.5879 44.2 78.7579 45.03 77.2379 45.03C75.6779 45.03 74.3779 43.86 74.3779 42.19C74.3779 40.54 75.6779 39.37 77.2379 39.37C78.5079 39.37 79.2879 39.93 79.3179 39.95V40.94H78.5879L78.4479 40.61C78.1879 40.5 77.7679 40.37 77.2379 40.37ZM82.8508 40.37C81.8308 40.37 80.9908 41.09 80.9908 42.19C80.9908 43.31 81.8308 44.03 82.8508 44.03C84.1108 44.03 84.6208 43.34 84.6208 43.36L85.2508 44.15C85.2008 44.2 84.3708 45.03 82.8508 45.03C81.2908 45.03 79.9908 43.86 79.9908 42.19C79.9908 40.54 81.2908 39.37 82.8508 39.37C84.1208 39.37 84.9008 39.93 84.9308 39.95V40.94H84.2008L84.0608 40.61C83.8008 40.5 83.3808 40.37 82.8508 40.37ZM93.8394 43.3C93.8394 44.24 93.0794 45 92.1394 45H88.8094V39.4H91.9394C92.8294 39.4 93.5494 40.11 93.5494 40.99C93.5494 41.31 93.3594 41.79 93.0094 41.97C93.4294 42.15 93.8394 42.74 93.8394 43.3ZM92.1394 42.58H89.8094V44.03H92.1394C92.5294 44.03 92.8394 43.68 92.8394 43.3C92.8394 42.91 92.5294 42.58 92.1394 42.58ZM91.9394 40.37H89.8094V41.61H92.0594C92.2994 41.59 92.5494 41.33 92.5494 40.99C92.5494 40.66 92.2694 40.37 91.9394 40.37ZM94.7348 45V39.4H95.7348V41.42H97.7648C98.7548 41.42 99.5648 42.21 99.5648 43.2C99.5648 44.2 98.7548 45 97.7648 45H94.7348ZM100.235 45V39.4H101.235V45H100.235ZM95.7348 44.03H97.7648C98.2248 44.03 98.5948 43.66 98.5948 43.2C98.5948 42.74 98.2248 42.39 97.7648 42.39H95.7348V44.03ZM103.135 45H102.135V39.4H107.215V45H106.215V40.33H103.135V45ZM110.721 39.37C112.271 39.37 113.621 40.64 113.621 42.19C113.621 43.76 112.271 45.03 110.721 45.03C109.161 45.03 107.811 43.76 107.811 42.19C107.811 40.64 109.161 39.37 110.721 39.37ZM110.721 40.37C109.701 40.37 108.811 41.19 108.811 42.19C108.811 43.21 109.701 44.03 110.721 44.03C111.741 44.03 112.621 43.21 112.621 42.19C112.621 41.19 111.741 40.37 110.721 40.37ZM115.1 40.33V39.4H119.62V45H118.62V40.33H116.69L115.9 44.13C115.78 44.72 115.14 45.03 114.6 45.03L114.11 44.93V44.03H114.6C114.76 44.03 114.97 43.89 115.02 43.64L115.7 40.33H115.1ZM121.516 45H120.516V39.4H121.516V41.62H124.596V39.4H125.596V45H124.596V42.55H121.516V45ZM129.005 44.06C129.965 44.06 130.455 43.56 130.625 43.36L131.235 44.13C131.115 44.28 130.445 45.03 129.005 45.03C127.445 45.03 126.195 43.79 126.195 42.19C126.195 40.64 127.425 39.37 128.985 39.37C130.485 39.37 131.695 40.59 131.695 42.19C131.695 42.31 131.685 42.48 131.675 42.55H127.225C127.405 43.41 128.125 44.06 129.005 44.06ZM128.985 40.37C128.145 40.37 127.465 40.9 127.265 41.62H130.605C130.485 40.95 129.805 40.37 128.985 40.37ZM133.553 45H132.553V39.4H133.553V41.62H136.633V39.4H137.633V45H136.633V42.55H133.553V45ZM143.617 45H142.617V40.33H142.327L140.287 45H138.537V39.4H139.537V44.07H139.737L141.797 39.4H143.617V45ZM145.033 45.03L144.543 44.93V44.03H145.033C145.153 44.03 145.253 43.98 145.323 43.82L145.743 42.91C144.983 42.71 144.423 42.01 144.423 41.18C144.423 40.21 145.223 39.4 146.193 39.4H149.353V45H148.353V42.97H146.833L146.183 44.34C145.983 44.76 145.543 45.03 145.033 45.03ZM145.423 41.18C145.423 41.62 145.773 41.97 146.193 41.97H148.353V40.4H146.213C145.783 40.4 145.423 40.75 145.423 41.18ZM154.869 42.59V41.63H155.749C156.989 41.63 157.089 41.29 157.089 41.01C157.089 40.65 156.539 40.32 155.649 40.32C155.049 40.32 154.569 40.5 154.279 40.64L154.249 40.94H153.419V39.96C153.449 39.93 154.379 39.37 155.649 39.37C157.059 39.37 158.089 40.11 158.089 41.01C158.089 41.49 157.749 41.94 157.469 42.07C157.849 42.24 158.299 42.71 158.299 43.27C158.299 44.33 157.189 45.03 155.699 45.03C154.179 45.03 153.099 44.19 153.049 44.15L153.679 43.38C153.719 43.41 154.439 44.05 155.699 44.05C156.389 44.05 157.299 43.85 157.299 43.27C157.299 42.88 157.079 42.59 155.699 42.59H154.869ZM159.104 43.22C159.104 42.22 159.814 41.41 161.004 41.41C161.994 41.41 162.634 41.54 163.184 41.81V41.46C163.184 40.7 162.534 40.3 161.804 40.3C161.194 40.3 160.854 40.36 160.454 40.57L160.394 40.97H159.594V39.99C160.274 39.6 160.824 39.37 161.804 39.37C163.184 39.37 164.184 40.09 164.184 41.65V45H163.384L163.224 44.17C162.674 44.61 162.014 45.03 161.004 45.03C159.814 45.03 159.104 44.22 159.104 43.22ZM160.074 43.22C160.074 43.68 160.444 44.14 161.204 44.14C161.994 44.14 162.644 43.71 163.184 43.19V42.7C162.654 42.44 161.894 42.3 161.104 42.3C160.344 42.3 160.074 42.76 160.074 43.22ZM167.778 42.55H166.088V45H165.088V39.4H166.088V41.62H167.798C167.938 41.6 168.108 41.42 168.198 41.18L168.538 40.3C168.798 39.72 169.298 39.4 169.838 39.4L170.228 39.5V40.4H169.838C169.678 40.4 169.518 40.54 169.418 40.79L169.078 41.67C169.018 41.83 168.778 42.03 168.688 42.08C168.778 42.11 168.988 42.31 169.058 42.45L169.608 43.64C169.718 43.89 169.868 44.03 170.028 44.03H170.418V44.93L170.028 45.03C169.478 45.03 168.998 44.71 168.728 44.13L168.178 42.94C168.068 42.71 167.938 42.57 167.778 42.55ZM171.12 43.22C171.12 42.22 171.83 41.41 173.02 41.41C174.01 41.41 174.65 41.54 175.2 41.81V41.46C175.2 40.7 174.55 40.3 173.82 40.3C173.21 40.3 172.87 40.36 172.47 40.57L172.41 40.97H171.61V39.99C172.29 39.6 172.84 39.37 173.82 39.37C175.2 39.37 176.2 40.09 176.2 41.65V45H175.4L175.24 44.17C174.69 44.61 174.03 45.03 173.02 45.03C171.83 45.03 171.12 44.22 171.12 43.22ZM172.09 43.22C172.09 43.68 172.46 44.14 173.22 44.14C174.01 44.14 174.66 43.71 175.2 43.19V42.7C174.67 42.44 173.91 42.3 173.12 42.3C172.36 42.3 172.09 42.76 172.09 43.22ZM178.824 42.59V41.63H179.704C180.944 41.63 181.044 41.29 181.044 41.01C181.044 40.65 180.494 40.32 179.604 40.32C179.004 40.32 178.524 40.5 178.234 40.64L178.204 40.94H177.374V39.96C177.404 39.93 178.334 39.37 179.604 39.37C181.014 39.37 182.044 40.11 182.044 41.01C182.044 41.49 181.704 41.94 181.424 42.07C181.804 42.24 182.254 42.71 182.254 43.27C182.254 44.33 181.144 45.03 179.654 45.03C178.134 45.03 177.054 44.19 177.004 44.15L177.634 43.38C177.674 43.41 178.394 44.05 179.654 44.05C180.344 44.05 181.254 43.85 181.254 43.27C181.254 42.88 181.034 42.59 179.654 42.59H178.824ZM183.059 43.22C183.059 42.22 183.769 41.41 184.959 41.41C185.949 41.41 186.589 41.54 187.139 41.81V41.46C187.139 40.7 186.489 40.3 185.759 40.3C185.149 40.3 184.809 40.36 184.409 40.57L184.349 40.97H183.549V39.99C184.229 39.6 184.779 39.37 185.759 39.37C187.139 39.37 188.139 40.09 188.139 41.65V45H187.339L187.179 44.17C186.629 44.61 185.969 45.03 184.959 45.03C183.769 45.03 183.059 44.22 183.059 43.22ZM184.029 43.22C184.029 43.68 184.399 44.14 185.159 44.14C185.949 44.14 186.599 43.71 187.139 43.19V42.7C186.609 42.44 185.849 42.3 185.059 42.3C184.299 42.3 184.029 42.76 184.029 43.22ZM195.141 39.67C196.541 39.67 197.641 40.64 197.641 42.34C197.641 43.91 196.291 45.03 194.741 45.03C193.181 45.03 191.831 43.86 191.831 42.19C191.831 40.49 192.041 38.66 194.341 38.08C195.111 37.89 195.661 37.78 195.921 37.6L196.061 37.17H196.791V38.32C196.301 38.63 195.661 38.71 194.631 38.98C193.541 39.26 193.111 39.84 192.941 40.58C193.501 40.07 194.251 39.67 195.141 39.67ZM192.831 41.61V42.18C192.831 43.2 193.741 44.03 194.741 44.03C195.761 44.03 196.641 43.36 196.641 42.34C196.641 41.19 195.711 40.67 194.941 40.67C194.111 40.67 193.351 41.01 192.831 41.61ZM198.57 45V39.4H199.57V41.42H201.6C202.59 41.42 203.4 42.21 203.4 43.2C203.4 44.2 202.59 45 201.6 45H198.57ZM204.07 45V39.4H205.07V45H204.07ZM199.57 44.03H201.6C202.06 44.03 202.43 43.66 202.43 43.2C202.43 42.74 202.06 42.39 201.6 42.39H199.57V44.03ZM206.86 40.33V39.4H211.38V45H210.38V40.33H208.45L207.66 44.13C207.54 44.72 206.9 45.03 206.36 45.03L205.87 44.93V44.03H206.36C206.52 44.03 206.73 43.89 206.78 43.64L207.46 40.33H206.86ZM47.58 56H46.58V51.33H46.29L44.25 56H42.5V50.4H43.5V55.07H43.7L45.76 50.4H47.58V56ZM50.204 53.59V52.63H51.084C52.324 52.63 52.424 52.29 52.424 52.01C52.424 51.65 51.874 51.32 50.984 51.32C50.384 51.32 49.904 51.5 49.614 51.64L49.584 51.94H48.754V50.96C48.784 50.93 49.714 50.37 50.984 50.37C52.394 50.37 53.424 51.11 53.424 52.01C53.424 52.49 53.084 52.94 52.804 53.07C53.184 53.24 53.634 53.71 53.634 54.27C53.634 55.33 52.524 56.03 51.034 56.03C49.514 56.03 48.434 55.19 48.384 55.15L49.014 54.38C49.054 54.41 49.774 55.05 51.034 55.05C51.724 55.05 52.634 54.85 52.634 54.27C52.634 53.88 52.414 53.59 51.034 53.59H50.204ZM55.4387 56H54.4387V50.4H56.2987L57.2587 53.07H57.5187L58.4887 50.4H60.3487V56H59.3487V51.33H59.0687L58.1187 54H56.6687L55.7187 51.33H55.4387V56ZM63.8551 55.06C64.8151 55.06 65.3051 54.56 65.4751 54.36L66.0851 55.13C65.9651 55.28 65.2951 56.03 63.8551 56.03C62.2951 56.03 61.0451 54.79 61.0451 53.19C61.0451 51.64 62.2751 50.37 63.8351 50.37C65.3351 50.37 66.5451 51.59 66.5451 53.19C66.5451 53.31 66.5351 53.48 66.5251 53.55H62.0751C62.2551 54.41 62.9751 55.06 63.8551 55.06ZM63.8351 51.37C62.9951 51.37 62.3151 51.9 62.1151 52.62H65.4551C65.3351 51.95 64.6551 51.37 63.8351 51.37ZM68.4027 56H67.4027V50.4H68.4027V52.62H71.4827V50.4H72.4827V56H71.4827V53.55H68.4027V56ZM74.3891 49.16C74.3891 48.85 74.6391 48.62 74.9691 48.62C75.2991 48.62 75.5591 48.85 75.5591 49.16C75.5591 49.47 75.2991 49.69 74.9691 49.69C74.6391 49.69 74.3891 49.47 74.3891 49.16ZM76.4891 49.16C76.4891 48.85 76.7391 48.62 77.0691 48.62C77.3991 48.62 77.6591 48.85 77.6591 49.16C77.6591 49.47 77.3991 49.69 77.0691 49.69C76.7391 49.69 76.4891 49.47 76.4891 49.16ZM75.9891 55.06C76.9491 55.06 77.4391 54.56 77.6091 54.36L78.2191 55.13C78.0991 55.28 77.4291 56.03 75.9891 56.03C74.4291 56.03 73.1791 54.79 73.1791 53.19C73.1791 51.64 74.4091 50.37 75.9691 50.37C77.4691 50.37 78.6791 51.59 78.6791 53.19C78.6791 53.31 78.6691 53.48 78.6591 53.55H74.2091C74.3891 54.41 75.1091 55.06 75.9891 55.06ZM75.9691 51.37C75.1291 51.37 74.4491 51.9 74.2491 52.62H77.5891C77.4691 51.95 76.7891 51.37 75.9691 51.37ZM80.5367 56H79.5367V50.4H80.5367V52.62H83.6167V50.4H84.6167V56H83.6167V53.55H80.5367V56ZM89.4188 56H88.4188V50.4H89.4188V52.62H92.4988V50.4H93.4988V56H92.4988V53.55H89.4188V56ZM94.3051 54.22C94.3051 53.22 95.0151 52.41 96.2051 52.41C97.1951 52.41 97.8351 52.54 98.3851 52.81V52.46C98.3851 51.7 97.7351 51.3 97.0051 51.3C96.3951 51.3 96.0551 51.36 95.6551 51.57L95.5951 51.97H94.7951V50.99C95.4751 50.6 96.0251 50.37 97.0051 50.37C98.3851 50.37 99.3851 51.09 99.3851 52.65V56H98.5851L98.4251 55.17C97.8751 55.61 97.2151 56.03 96.2051 56.03C95.0151 56.03 94.3051 55.22 94.3051 54.22ZM95.2751 54.22C95.2751 54.68 95.6451 55.14 96.4051 55.14C97.1951 55.14 97.8451 54.71 98.3851 54.19V53.7C97.8551 53.44 97.0951 53.3 96.3051 53.3C95.5451 53.3 95.2751 53.76 95.2751 54.22ZM108.257 50.35H107.207C107.067 50.01 106.687 49.62 105.977 49.62C104.807 49.62 104.297 50.7 104.207 51.91C104.467 51.44 105.147 50.92 105.837 50.92C107.727 50.92 108.487 52.24 108.487 53.43C108.487 54.62 107.727 56.03 105.837 56.03C103.947 56.03 103.187 54.42 103.187 52.33C103.187 50.44 104.087 48.62 105.977 48.62C107.227 48.62 108.057 49.47 108.257 50.35ZM105.837 55.03C107.257 55.03 107.487 53.85 107.487 53.43C107.487 53.01 107.257 51.92 105.837 51.92C104.877 51.92 104.327 52.83 104.217 53.23C104.317 54.01 104.687 55.03 105.837 55.03ZM112.036 48.62C113.926 48.62 114.686 50.44 114.686 52.33C114.686 54.22 113.926 56.03 112.036 56.03C110.146 56.03 109.386 54.22 109.386 52.33C109.386 50.44 110.146 48.62 112.036 48.62ZM112.036 55.03C113.456 55.03 113.686 53.45 113.686 52.33C113.686 51.21 113.456 49.62 112.036 49.62C110.616 49.62 110.386 51.21 110.386 52.33C110.386 53.45 110.616 55.03 112.036 55.03ZM116.705 48.61C117.625 48.61 118.005 49.42 118.005 50.35C118.005 51.27 117.625 52.07 116.705 52.07C115.775 52.07 115.405 51.27 115.405 50.35C115.405 49.42 115.775 48.61 116.705 48.61ZM115.775 56L120.375 48.65H121.205L116.605 56H115.775ZM116.705 49.33C116.295 49.33 116.125 49.8 116.125 50.35C116.125 50.88 116.295 51.35 116.705 51.35C117.115 51.35 117.285 50.88 117.285 50.35C117.285 49.8 117.115 49.33 116.705 49.33ZM120.305 52.57C121.225 52.57 121.605 53.38 121.605 54.31C121.605 55.23 121.225 56.03 120.305 56.03C119.375 56.03 119.005 55.23 119.005 54.31C119.005 53.38 119.375 52.57 120.305 52.57ZM120.305 53.29C119.895 53.29 119.725 53.76 119.725 54.31C119.725 54.84 119.895 55.31 120.305 55.31C120.715 55.31 120.885 54.84 120.885 54.31C120.885 53.76 120.715 53.29 120.305 53.29ZM122.391 55.39C122.391 55.03 122.701 54.74 123.091 54.74C123.501 54.74 123.821 55.03 123.821 55.39C123.821 55.75 123.501 56.03 123.091 56.03C122.701 56.03 122.391 55.75 122.391 55.39ZM127.787 56V48.65H133.987V56H132.987V49.55H128.787V56H127.787ZM137.689 50.37C139.239 50.37 140.589 51.64 140.589 53.19C140.589 54.76 139.239 56.03 137.689 56.03C136.129 56.03 134.779 54.76 134.779 53.19C134.779 51.64 136.129 50.37 137.689 50.37ZM137.689 51.37C136.669 51.37 135.779 52.19 135.779 53.19C135.779 54.21 136.669 55.03 137.689 55.03C138.709 55.03 139.589 54.21 139.589 53.19C139.589 52.19 138.709 51.37 137.689 51.37ZM147.399 53.55H146.109V56H145.109V53.55H143.819C143.619 53.57 143.519 53.71 143.419 53.94L142.869 55.13C142.599 55.71 142.109 56.03 141.569 56.03L141.179 55.93V55.03H141.569C141.729 55.03 141.869 54.89 141.989 54.64L142.539 53.45C142.599 53.31 142.819 53.11 142.909 53.08C142.809 53.03 142.579 52.83 142.519 52.67L142.179 51.79C142.079 51.54 141.919 51.4 141.759 51.4H141.369V50.5L141.759 50.4C142.299 50.4 142.799 50.72 143.059 51.3L143.399 52.18C143.489 52.42 143.649 52.6 143.799 52.62H145.109V50.4H146.109V52.62H147.419C147.559 52.6 147.729 52.42 147.819 52.18L148.159 51.3C148.419 50.72 148.919 50.4 149.459 50.4L149.849 50.5V51.4H149.459C149.299 51.4 149.139 51.54 149.039 51.79L148.699 52.67C148.639 52.83 148.399 53.03 148.309 53.08C148.399 53.11 148.609 53.31 148.679 53.45L149.229 54.64C149.339 54.89 149.489 55.03 149.649 55.03H150.039V55.93L149.649 56.03C149.099 56.03 148.619 55.71 148.349 55.13L147.799 53.94C147.689 53.71 147.559 53.57 147.399 53.55ZM150.844 54.22C150.844 53.22 151.554 52.41 152.744 52.41C153.734 52.41 154.374 52.54 154.924 52.81V52.46C154.924 51.7 154.274 51.3 153.544 51.3C152.934 51.3 152.594 51.36 152.194 51.57L152.134 51.97H151.334V50.99C152.014 50.6 152.564 50.37 153.544 50.37C154.924 50.37 155.924 51.09 155.924 52.65V56H155.124L154.964 55.17C154.414 55.61 153.754 56.03 152.744 56.03C151.554 56.03 150.844 55.22 150.844 54.22ZM151.814 54.22C151.814 54.68 152.184 55.14 152.944 55.14C153.734 55.14 154.384 54.71 154.924 54.19V53.7C154.394 53.44 153.634 53.3 152.844 53.3C152.084 53.3 151.814 53.76 151.814 54.22ZM157.718 51.33V50.4H162.238V56H161.238V51.33H159.308L158.518 55.13C158.398 55.72 157.758 56.03 157.218 56.03L156.728 55.93V55.03H157.218C157.378 55.03 157.588 54.89 157.638 54.64L158.318 51.33H157.718ZM164.439 56L162.769 50.4H163.769L165.149 55H165.879L167.259 50.4H168.259L166.209 57.27C166.039 57.85 165.449 58.17 164.909 58.17L164.319 58.07V57.17H164.909C165.069 57.17 165.289 57.04 165.339 56.79L165.569 56H164.439ZM172.321 48.5H173.061C173.061 49.25 172.431 49.79 171.531 49.79C170.631 49.79 170.001 49.25 170.001 48.5H170.731C170.761 48.93 171.001 49.11 171.531 49.11C172.061 49.11 172.291 48.94 172.321 48.5ZM174.071 56H173.071V51.4H172.751L170.751 56H168.991V50.4H169.991V55H170.221L172.241 50.4H174.071V56ZM177.528 51.37C176.508 51.37 175.668 52.09 175.668 53.19C175.668 54.31 176.508 55.03 177.528 55.03C178.788 55.03 179.298 54.34 179.298 54.36L179.928 55.15C179.878 55.2 179.048 56.03 177.528 56.03C175.968 56.03 174.668 54.86 174.668 53.19C174.668 51.54 175.968 50.37 177.528 50.37C178.798 50.37 179.578 50.93 179.608 50.95V51.94H178.878L178.738 51.61C178.478 51.5 178.058 51.37 177.528 51.37ZM183.393 56H182.393V51.33H180.393V50.4H185.393V51.33H183.393V56ZM185.791 54.22C185.791 53.22 186.501 52.41 187.691 52.41C188.681 52.41 189.321 52.54 189.871 52.81V52.46C189.871 51.7 189.221 51.3 188.491 51.3C187.881 51.3 187.541 51.36 187.141 51.57L187.081 51.97H186.281V50.99C186.961 50.6 187.511 50.37 188.491 50.37C189.871 50.37 190.871 51.09 190.871 52.65V56H190.071L189.911 55.17C189.361 55.61 188.701 56.03 187.691 56.03C186.501 56.03 185.791 55.22 185.791 54.22ZM186.761 54.22C186.761 54.68 187.131 55.14 187.891 55.14C188.681 55.14 189.331 54.71 189.871 54.19V53.7C189.341 53.44 188.581 53.3 187.791 53.3C187.031 53.3 186.761 53.76 186.761 54.22ZM191.845 55.33C191.845 54.97 192.155 54.74 192.545 54.74C193.075 54.74 193.285 55.1 193.285 55.57C193.285 56.42 192.725 57.02 192.375 57.33L192.115 57.11C192.415 56.81 192.585 56.43 192.585 56.15C192.585 56.07 192.575 56 192.545 55.94C192.075 55.94 191.845 55.69 191.845 55.33ZM45.2 61.37C46.75 61.37 48.1 62.64 48.1 64.19C48.1 65.76 46.75 67.03 45.2 67.03C43.64 67.03 42.29 65.76 42.29 64.19C42.29 62.64 43.64 61.37 45.2 61.37ZM45.2 62.37C44.18 62.37 43.29 63.19 43.29 64.19C43.29 65.21 44.18 66.03 45.2 66.03C46.22 66.03 47.1 65.21 47.1 64.19C47.1 63.19 46.22 62.37 45.2 62.37ZM50.4091 64.59V63.63H51.2891C52.5291 63.63 52.6291 63.29 52.6291 63.01C52.6291 62.65 52.0791 62.32 51.1891 62.32C50.5891 62.32 50.1091 62.5 49.8191 62.64L49.7891 62.94H48.9591V61.96C48.9891 61.93 49.9191 61.37 51.1891 61.37C52.5991 61.37 53.6291 62.11 53.6291 63.01C53.6291 63.49 53.2891 63.94 53.0091 64.07C53.3891 64.24 53.8391 64.71 53.8391 65.27C53.8391 66.33 52.7291 67.03 51.2391 67.03C49.7191 67.03 48.6391 66.19 48.5891 66.15L49.2191 65.38C49.2591 65.41 49.9791 66.05 51.2391 66.05C51.9291 66.05 52.8391 65.85 52.8391 65.27C52.8391 64.88 52.6191 64.59 51.2391 64.59H50.4091ZM55.6438 67H54.6438V61.4H55.6438V63.62H58.7238V61.4H59.7238V67H58.7238V64.55H55.6438V67ZM60.5301 65.22C60.5301 64.22 61.2401 63.41 62.4301 63.41C63.4201 63.41 64.0601 63.54 64.6101 63.81V63.46C64.6101 62.7 63.9601 62.3 63.2301 62.3C62.6201 62.3 62.2801 62.36 61.8801 62.57L61.8201 62.97H61.0201V61.99C61.7001 61.6 62.2501 61.37 63.2301 61.37C64.6101 61.37 65.6101 62.09 65.6101 63.65V67H64.8101L64.6501 66.17C64.1001 66.61 63.4401 67.03 62.4301 67.03C61.2401 67.03 60.5301 66.22 60.5301 65.22ZM61.5001 65.22C61.5001 65.68 61.8701 66.14 62.6301 66.14C63.4201 66.14 64.0701 65.71 64.6101 65.19V64.7C64.0801 64.44 63.3201 64.3 62.5301 64.3C61.7701 64.3 61.5001 64.76 61.5001 65.22ZM69.2041 64.55H67.5141V67H66.5141V61.4H67.5141V63.62H69.2241C69.3641 63.6 69.5341 63.42 69.6241 63.18L69.9641 62.3C70.2241 61.72 70.7241 61.4 71.2641 61.4L71.6541 61.5V62.4H71.2641C71.1041 62.4 70.9441 62.54 70.8441 62.79L70.5041 63.67C70.4441 63.83 70.2041 64.03 70.1141 64.08C70.2041 64.11 70.4141 64.31 70.4841 64.45L71.0341 65.64C71.1441 65.89 71.2941 66.03 71.4541 66.03H71.8441V66.93L71.4541 67.03C70.9041 67.03 70.4241 66.71 70.1541 66.13L69.6041 64.94C69.4941 64.71 69.3641 64.57 69.2041 64.55ZM75.3445 61.37C76.8945 61.37 78.2445 62.64 78.2445 64.19C78.2445 65.76 76.8945 67.03 75.3445 67.03C73.7845 67.03 72.4345 65.76 72.4345 64.19C72.4345 62.64 73.7845 61.37 75.3445 61.37ZM75.3445 62.37C74.3245 62.37 73.4345 63.19 73.4345 64.19C73.4345 65.21 74.3245 66.03 75.3445 66.03C76.3645 66.03 77.2445 65.21 77.2445 64.19C77.2445 63.19 76.3645 62.37 75.3445 62.37ZM79.9313 67H78.9313V61.4H80.7913L81.7513 64.07H82.0113L82.9813 61.4H84.8413V67H83.8413V62.33H83.5613L82.6113 65H81.1613L80.2113 62.33H79.9313V67ZM85.843 67V61.4H86.843V63.42H89.173C90.163 63.42 90.973 64.21 90.973 65.2C90.973 66.2 90.163 67 89.173 67H85.843ZM86.843 66.03H89.173C89.633 66.03 90.003 65.66 90.003 65.2C90.003 64.74 89.633 64.39 89.173 64.39H86.843V66.03ZM93.6746 67H92.6746V62.33H90.6746V61.4H95.6746V62.33H93.6746V67ZM98.968 66.06C99.928 66.06 100.418 65.56 100.588 65.36L101.198 66.13C101.078 66.28 100.408 67.03 98.968 67.03C97.408 67.03 96.158 65.79 96.158 64.19C96.158 62.64 97.388 61.37 98.948 61.37C100.448 61.37 101.658 62.59 101.658 64.19C101.658 64.31 101.648 64.48 101.638 64.55H97.188C97.368 65.41 98.088 66.06 98.968 66.06ZM98.948 62.37C98.108 62.37 97.428 62.9 97.228 63.62H100.568C100.448 62.95 99.768 62.37 98.948 62.37ZM105.166 62.37C104.146 62.37 103.306 63.09 103.306 64.19C103.306 65.31 104.146 66.03 105.166 66.03C106.426 66.03 106.936 65.34 106.936 65.36L107.566 66.15C107.516 66.2 106.686 67.03 105.166 67.03C103.606 67.03 102.306 65.86 102.306 64.19C102.306 62.54 103.606 61.37 105.166 61.37C106.436 61.37 107.216 61.93 107.246 61.95V62.94H106.516L106.376 62.61C106.116 62.5 105.696 62.37 105.166 62.37ZM108.226 67V61.4H109.226V63.42H111.556C112.546 63.42 113.356 64.21 113.356 65.2C113.356 66.2 112.546 67 111.556 67H108.226ZM109.226 66.03H111.556C112.016 66.03 112.386 65.66 112.386 65.2C112.386 64.74 112.016 64.39 111.556 64.39H109.226V66.03ZM119.807 62.37C118.787 62.37 117.947 63.09 117.947 64.19C117.947 65.31 118.787 66.03 119.807 66.03C121.067 66.03 121.577 65.34 121.577 65.36L122.207 66.15C122.157 66.2 121.327 67.03 119.807 67.03C118.247 67.03 116.947 65.86 116.947 64.19C116.947 62.54 118.247 61.37 119.807 61.37C121.077 61.37 121.857 61.93 121.887 61.95V62.94H121.157L121.017 62.61C120.757 62.5 120.337 62.37 119.807 62.37ZM128.466 61.37C130.016 61.37 131.366 62.64 131.366 64.19C131.366 65.76 130.016 67.03 128.466 67.03C126.906 67.03 125.556 65.76 125.556 64.19C125.556 62.64 126.906 61.37 128.466 61.37ZM128.466 62.37C127.446 62.37 126.556 63.19 126.556 64.19C126.556 65.21 127.446 66.03 128.466 66.03C129.486 66.03 130.366 65.21 130.366 64.19C130.366 63.19 129.486 62.37 128.466 62.37ZM134.955 67H133.955V62.33H131.955V61.4H136.955V62.33H134.955V67ZM142.831 67H141.831V65.05H139.651C138.641 65.05 137.851 64.23 137.851 63.25V61.4H138.851V63.25C138.851 63.7 139.201 64.08 139.651 64.08H141.831V61.4H142.831V67ZM144.73 60.16C144.73 59.85 144.98 59.62 145.31 59.62C145.64 59.62 145.9 59.85 145.9 60.16C145.9 60.47 145.64 60.69 145.31 60.69C144.98 60.69 144.73 60.47 144.73 60.16ZM146.83 60.16C146.83 59.85 147.08 59.62 147.41 59.62C147.74 59.62 148 59.85 148 60.16C148 60.47 147.74 60.69 147.41 60.69C147.08 60.69 146.83 60.47 146.83 60.16ZM146.33 66.06C147.29 66.06 147.78 65.56 147.95 65.36L148.56 66.13C148.44 66.28 147.77 67.03 146.33 67.03C144.77 67.03 143.52 65.79 143.52 64.19C143.52 62.64 144.75 61.37 146.31 61.37C147.81 61.37 149.02 62.59 149.02 64.19C149.02 64.31 149.01 64.48 149 64.55H144.55C144.73 65.41 145.45 66.06 146.33 66.06ZM146.31 62.37C145.47 62.37 144.79 62.9 144.59 63.62H147.93C147.81 62.95 147.13 62.37 146.31 62.37ZM152.575 67H151.575V62.33H149.575V61.4H154.575V62.33H152.575V67ZM157.868 61.37C159.418 61.37 160.768 62.64 160.768 64.19C160.768 65.76 159.418 67.03 157.868 67.03C156.308 67.03 154.958 65.76 154.958 64.19C154.958 62.64 156.308 61.37 157.868 61.37ZM157.868 62.37C156.848 62.37 155.958 63.19 155.958 64.19C155.958 65.21 156.848 66.03 157.868 66.03C158.888 66.03 159.768 65.21 159.768 64.19C159.768 63.19 158.888 62.37 157.868 62.37ZM162.455 67H161.455V61.4H163.315L164.275 64.07H164.535L165.505 61.4H167.365V67H166.365V62.33H166.085L165.135 65H163.685L162.735 62.33H162.455V67ZM173.914 62.37C172.894 62.37 172.054 63.09 172.054 64.19C172.054 65.31 172.894 66.03 173.914 66.03C175.174 66.03 175.684 65.34 175.684 65.36L176.314 66.15C176.264 66.2 175.434 67.03 173.914 67.03C172.354 67.03 171.054 65.86 171.054 64.19C171.054 62.54 172.354 61.37 173.914 61.37C175.184 61.37 175.964 61.93 175.994 61.95V62.94H175.264L175.124 62.61C174.864 62.5 174.444 62.37 173.914 62.37ZM179.78 67H178.78V62.33H176.78V61.4H181.78V62.33H179.78V67ZM184.078 67L182.408 61.4H183.408L184.788 66H185.518L186.898 61.4H187.898L185.848 68.27C185.678 68.85 185.088 69.17 184.548 69.17L183.958 69.07V68.17H184.548C184.708 68.17 184.928 68.04 184.978 67.79L185.208 67H184.078ZM189.063 62.3V61.4H193.683V66.07H194.383V68.4H193.483L193.383 67H189.103L189.003 68.4H188.103V66.07H188.663C188.823 66.07 189.033 65.89 189.083 65.64L189.763 62.3H189.063ZM189.973 66.07H192.683V62.3H190.753L189.973 66.07ZM200.359 67H199.359V62.33H199.069L197.029 67H195.279V61.4H196.279V66.07H196.479L198.539 61.4H200.359V67ZM206.342 67H205.342V62.33H205.052L203.012 67H201.262V61.4H202.262V66.07H202.462L204.522 61.4H206.342V67ZM210.215 66.39C210.215 66.03 210.525 65.74 210.915 65.74C211.325 65.74 211.645 66.03 211.645 66.39C211.645 66.75 211.325 67.03 210.915 67.03C210.525 67.03 210.215 66.75 210.215 66.39ZM210.215 62.02C210.215 61.66 210.525 61.37 210.915 61.37C211.325 61.37 211.645 61.66 211.645 62.02C211.645 62.38 211.325 62.66 210.915 62.66C210.525 62.66 210.215 62.38 210.215 62.02ZM213.363 63.77C213.363 61.75 212.793 60.47 212.193 59.37H212.673C213.393 60.19 214.303 61.48 214.303 63.77C214.303 66.06 213.393 67.35 212.673 68.17H212.193C212.793 67.07 213.363 65.79 213.363 63.77Z" fill="url(#paint7_linear_99_165)"/>
</g>
<rect x="0.5" y="0.5" width="259" height="88" rx="9.5" stroke="url(#paint8_linear_99_165)"/>
</g>
<defs>
<filter id="filter0_f_99_165" x="-160.6" y="-131.6" width="373.2" height="329.2" filterUnits="userSpaceOnUse" color-interpolation-filters="sRGB">
<feFlood flood-opacity="0" result="BackgroundImageFix"/>
<feBlend mode="normal" in="SourceGraphic" in2="BackgroundImageFix" result="shape"/>
<feGaussianBlur stdDeviation="40.8" result="effect1_foregroundBlur_99_165"/>
</filter>
<filter id="filter1_f_99_165" x="109.4" y="8.4" width="359.2" height="324.2" filterUnits="userSpaceOnUse" color-interpolation-filters="sRGB">
<feFlood flood-opacity="0" result="BackgroundImageFix"/>
<feBlend mode="normal" in="SourceGraphic" in2="BackgroundImageFix" result="shape"/>
<feGaussianBlur stdDeviation="40.8" result="effect1_foregroundBlur_99_165"/>
</filter>
<filter id="filter2_f_99_165" x="-169.6" y="-146.6" width="373.2" height="329.2" filterUnits="userSpaceOnUse" color-interpolation-filters="sRGB">
<feFlood flood-opacity="0" result="BackgroundImageFix"/>
<feBlend mode="normal" in="SourceGraphic" in2="BackgroundImageFix" result="shape"/>
<feGaussianBlur stdDeviation="40.8" result="effect1_foregroundBlur_99_165"/>
</filter>
<filter id="filter3_f_99_165" x="100.4" y="-6.6" width="359.2" height="324.2" filterUnits="userSpaceOnUse" color-interpolation-filters="sRGB">
<feFlood flood-opacity="0" result="BackgroundImageFix"/>
<feBlend mode="normal" in="SourceGraphic" in2="BackgroundImageFix" result="shape"/>
<feGaussianBlur stdDeviation="40.8" result="effect1_foregroundBlur_99_165"/>
</filter>
<filter id="filter4_f_99_165" x="-175.6" y="-161.6" width="373.2" height="329.2" filterUnits="userSpaceOnUse" color-interpolation-filters="sRGB">
<feFlood flood-opacity="0" result="BackgroundImageFix"/>
<feBlend mode="normal" in="SourceGraphic" in2="BackgroundImageFix" result="shape"/>
<feGaussianBlur stdDeviation="40.8" result="effect1_foregroundBlur_99_165"/>
</filter>
<filter id="filter5_f_99_165" x="94.4" y="-21.6" width="359.2" height="324.2" filterUnits="userSpaceOnUse" color-interpolation-filters="sRGB">
<feFlood flood-opacity="0" result="BackgroundImageFix"/>
<feBlend mode="normal" in="SourceGraphic" in2="BackgroundImageFix" result="shape"/>
<feGaussianBlur stdDeviation="40.8" result="effect1_foregroundBlur_99_165"/>
</filter>
<filter id="filter6_f_99_165" x="-184.6" y="-177.6" width="373.2" height="329.2" filterUnits="userSpaceOnUse" color-interpolation-filters="sRGB">
<feFlood flood-opacity="0" result="BackgroundImageFix"/>
<feBlend mode="normal" in="SourceGraphic" in2="BackgroundImageFix" result="shape"/>
<feGaussianBlur stdDeviation="40.8" result="effect1_foregroundBlur_99_165"/>
</filter>
<filter id="filter7_f_99_165" x="85.4" y="-37.6" width="359.2" height="324.2" filterUnits="userSpaceOnUse" color-interpolation-filters="sRGB">
<feFlood flood-opacity="0" result="BackgroundImageFix"/>
<feBlend mode="normal" in="SourceGraphic" in2="BackgroundImageFix" result="shape"/>
<feGaussianBlur stdDeviation="40.8" result="effect1_foregroundBlur_99_165"/>
</filter>
<filter id="filter8_f_99_165" x="-147.6" y="-192.6" width="356.2" height="329.2" filterUnits="userSpaceOnUse" color-interpolation-filters="sRGB">
<feFlood flood-opacity="0" result="BackgroundImageFix"/>
<feBlend mode="normal" in="SourceGraphic" in2="BackgroundImageFix" result="shape"/>
<feGaussianBlur stdDeviation="40.8" result="effect1_foregroundBlur_99_165"/>
</filter>
<filter id="filter9_f_99_165" x="90.4" y="-52.6" width="339.2" height="324.2" filterUnits="userSpaceOnUse" color-interpolation-filters="sRGB">
<feFlood flood-opacity="0" result="BackgroundImageFix"/>
<feBlend mode="normal" in="SourceGraphic" in2="BackgroundImageFix" result="shape"/>
<feGaussianBlur stdDeviation="40.8" result="effect1_foregroundBlur_99_165"/>
</filter>
<linearGradient id="paint0_linear_99_165" x1="31" y1="61" x2="223.169" y2="126.505" gradientUnits="userSpaceOnUse">
<stop stop-color="#FFEFAE"/>
<stop offset="0.1592" stop-color="#8B7221"/>
<stop offset="0.869126" stop-color="#5D3386" stop-opacity="0.5"/>
<stop offset="1" stop-color="#CC97FF" stop-opacity="0.5"/>
</linearGradient>
<linearGradient id="paint1_linear_99_165" x1="22" y1="46" x2="232.071" y2="117.793" gradientUnits="userSpaceOnUse">
<stop stop-color="#FFEFAE"/>
<stop offset="0.1592" stop-color="#8B7221"/>
<stop offset="0.869126" stop-color="#9D9D9D" stop-opacity="0.5"/>
<stop offset="1" stop-color="#AFAFAF" stop-opacity="0.5"/>
</linearGradient>
<linearGradient id="paint2_linear_99_165" x1="16" y1="31" x2="243.181" y2="108.47" gradientUnits="userSpaceOnUse">
<stop stop-color="#FFEFAE"/>
<stop offset="0.1592" stop-color="#8B7221"/>
<stop offset="0.869126" stop-color="#8E8E8E" stop-opacity="0.25"/>
<stop offset="1" stop-color="#B7B7B7" stop-opacity="0.25"/>
</linearGradient>
<linearGradient id="paint3_linear_99_165" x1="7" y1="15" x2="252.082" y2="98.7591" gradientUnits="userSpaceOnUse">
<stop stop-color="#FFEFAE"/>
<stop offset="0.1592" stop-color="#8B7221"/>
<stop offset="0.869126" stop-color="#868686" stop-opacity="0.25"/>
<stop offset="1" stop-color="#A7A7A7" stop-opacity="0.3"/>
</linearGradient>
<linearGradient id="paint4_linear_99_165" x1="21.375" y1="12.0625" x2="21.375" y2="27.813" gradientUnits="userSpaceOnUse">
<stop stop-color="#FFE88C"/>
<stop offset="1" stop-color="#AE944B"/>
</linearGradient>
<linearGradient id="paint5_linear_99_165" x1="23.0625" y1="17.6875" x2="23.0625" y2="27.813" gradientUnits="userSpaceOnUse">
<stop stop-color="#FFE88C"/>
<stop offset="1" stop-color="#AE944B"/>
</linearGradient>
<linearGradient id="paint6_linear_99_165" x1="46.8404" y1="8.75" x2="225.703" y2="35.1084" gradientUnits="userSpaceOnUse">
<stop stop-color="white"/>
<stop offset="1" stop-color="white" stop-opacity="0.6"/>
</linearGradient>
<linearGradient id="paint7_linear_99_165" x1="47.4521" y1="24.625" x2="252.278" y2="39.0488" gradientUnits="userSpaceOnUse">
<stop stop-color="#929292"/>
<stop offset="1" stop-color="#929292" stop-opacity="0.7"/>
</linearGradient>
<linearGradient id="paint8_linear_99_165" x1="5.49999" y1="-11.5" x2="260" y2="89" gradientUnits="userSpaceOnUse">
<stop stop-color="#FFEFAE"/>
<stop offset="0.221143" stop-color="#8B7221"/>
<stop offset="0.869126" stop-color="#4A4A4A" stop-opacity="0.5"/>
<stop offset="1" stop-color="#C7C7C7" stop-opacity="0.3"/>
</linearGradient>
<clipPath id="clip0_99_165">
<rect width="260" height="127" fill="white"/>
</clipPath>
<clipPath id="clip1_99_165">
<rect x="31" y="61" width="192" height="66" rx="10" fill="white"/>
</clipPath>
<clipPath id="clip2_99_165">
<rect x="22" y="46" width="210" height="72" rx="10" fill="white"/>
</clipPath>
<clipPath id="clip3_99_165">
<rect x="16" y="31" width="227" height="78" rx="10" fill="white"/>
</clipPath>
<clipPath id="clip4_99_165">
<rect x="7" y="15" width="245" height="84" rx="10" fill="white"/>
</clipPath>
<clipPath id="clip5_99_165">
<rect width="260" height="89" rx="10" fill="white"/>
</clipPath>
</defs>
</svg>
